<svg width="86" height="14" viewBox="0 0 86 14" fill="none" xmlns="http://www.w3.org/2000/svg">
<path d="M6.034 13.926H3.878C3.654 13.926 3.49067 13.8747 3.388 13.772C3.28533 13.6693 3.234 13.506 3.234 13.282V12.638C2.69267 12.5447 2.24 12.386 1.876 12.162C1.52133 11.9473 1.24133 11.6907 1.036 11.392C0.830667 11.0933 0.686 10.7667 0.602 10.412C0.518 10.0573 0.476 9.698 0.476 9.334V5.106C0.476 4.67667 0.536667 4.28 0.658 3.916C0.779333 3.54267 0.998667 3.22533 1.316 2.964L3.136 1.452C3.46267 1.172 3.91533 0.957333 4.494 0.807999C5.082 0.649333 5.84267 0.569999 6.776 0.569999C7.69067 0.569999 8.43733 0.644666 9.016 0.794C9.604 0.943333 10.0613 1.15333 10.388 1.424C10.724 1.68533 10.9527 2.00267 11.074 2.376C11.1953 2.74 11.256 3.14133 11.256 3.58V8.228C11.256 8.65733 11.1953 9.054 11.074 9.418C10.9527 9.782 10.7333 10.0947 10.416 10.356L8.61 11.868C8.582 11.8867 8.554 11.9053 8.526 11.924C8.50733 11.952 8.484 11.9707 8.456 11.98C8.44667 12.0453 8.42333 12.1013 8.386 12.148C8.358 12.1947 8.32533 12.2367 8.288 12.274L6.468 13.786C6.43067 13.8233 6.37 13.856 6.286 13.884C6.21133 13.912 6.12733 13.926 6.034 13.926ZM7.84 12.26C8.01733 12.26 8.14333 12.218 8.218 12.134C8.302 12.0593 8.344 11.9333 8.344 11.756V10.986C8.89467 10.9113 9.34733 10.79 9.702 10.622C10.066 10.454 10.3507 10.2533 10.556 10.02C10.7613 9.78667 10.906 9.52067 10.99 9.222C11.074 8.914 11.116 8.58267 11.116 8.228V3.58C11.116 3.15067 11.0507 2.76333 10.92 2.418C10.7987 2.06333 10.5747 1.76 10.248 1.508C9.93067 1.256 9.48733 1.06 8.918 0.92C8.358 0.78 7.644 0.71 6.776 0.71C5.908 0.71 5.18933 0.78 4.62 0.92C4.05067 1.06 3.60267 1.256 3.276 1.508C2.95867 1.76 2.73467 2.06333 2.604 2.418C2.48267 2.76333 2.422 3.15067 2.422 3.58V8.228C2.422 8.928 2.60867 9.52533 2.982 10.02C3.36467 10.5053 4.09733 10.8273 5.18 10.986V11.756C5.18 11.9333 5.21733 12.0593 5.292 12.134C5.376 12.218 5.50667 12.26 5.684 12.26H7.84ZM6.678 11V9.922C5.614 9.91267 4.89067 9.73533 4.508 9.39C4.12533 9.04467 3.934 8.592 3.934 8.032V3.902C3.934 3.342 4.13 2.88933 4.522 2.544C4.914 2.18933 5.656 2.012 6.748 2.012C7.84 2.012 8.58667 2.18933 8.988 2.544C9.38933 2.88933 9.59 3.342 9.59 3.902V8.032C9.59 8.592 9.394 9.04467 9.002 9.39C8.61 9.73533 7.882 9.91267 6.818 9.922V11H6.678ZM4.074 8.032C4.074 8.55467 4.26067 8.97933 4.634 9.306C5.00733 9.62333 5.712 9.782 6.748 9.782C7.784 9.782 8.49333 9.62333 8.876 9.306C9.25867 8.97933 9.45 8.55467 9.45 8.032V3.902C9.45 3.37933 9.25867 2.95933 8.876 2.642C8.49333 2.31533 7.784 2.152 6.748 2.152C5.712 2.152 5.00733 2.31533 4.634 2.642C4.26067 2.95933 4.074 3.37933 4.074 3.902V8.032ZM5.6 7.92V4.098C5.6 3.92067 5.67 3.77133 5.81 3.65C5.95 3.51933 6.272 3.454 6.776 3.454C7.28 3.454 7.602 3.51933 7.742 3.65C7.882 3.77133 7.952 3.92067 7.952 4.098V7.92C7.952 8.10667 7.882 8.26533 7.742 8.396C7.602 8.51733 7.28 8.578 6.776 8.578C6.272 8.578 5.95 8.51733 5.81 8.396C5.67 8.26533 5.6 8.10667 5.6 7.92ZM5.74 7.92C5.74 8.01333 5.75867 8.09733 5.796 8.172C5.83333 8.23733 5.90333 8.29333 6.006 8.34V5.624C6.006 5.53067 5.98733 5.45133 5.95 5.386C5.91267 5.31133 5.84267 5.25533 5.74 5.218V7.92ZM18.7308 12.666H12.7668C12.5428 12.666 12.3795 12.6147 12.2768 12.512C12.1741 12.4093 12.1228 12.246 12.1228 12.022V10.356C12.1228 10.2347 12.1368 10.132 12.1648 10.048C12.2021 9.964 12.2535 9.894 12.3188 9.838L14.0128 8.41V5.288H12.7668C12.5428 5.288 12.3795 5.23667 12.2768 5.134C12.1741 5.03133 12.1228 4.868 12.1228 4.644V2.95C12.1228 2.82867 12.1368 2.726 12.1648 2.642C12.2021 2.558 12.2535 2.488 12.3188 2.432L14.1248 0.906C14.1715 0.868666 14.2321 0.840666 14.3068 0.821999C14.3908 0.794 14.4795 0.78 14.5728 0.78H20.5368C20.7608 0.78 20.9241 0.831333 21.0268 0.933999C21.1295 1.03667 21.1808 1.2 21.1808 1.424V3.118C21.1808 3.23933 21.1621 3.342 21.1248 3.426C21.0968 3.51 21.0501 3.58 20.9848 3.636L19.3188 5.036V8.186H20.5368C20.7608 8.186 20.9241 8.23733 21.0268 8.34C21.1295 8.44267 21.1808 8.606 21.1808 8.83V10.496C21.1808 10.6173 21.1621 10.72 21.1248 10.804C21.0968 10.888 21.0501 10.958 20.9848 11.014L19.1648 12.526C19.1275 12.5633 19.0668 12.596 18.9828 12.624C18.9081 12.652 18.8241 12.666 18.7308 12.666ZM14.5728 11H20.5368C20.7141 11 20.8401 10.9627 20.9148 10.888C20.9988 10.804 21.0408 10.6733 21.0408 10.496V8.83C21.0408 8.65267 20.9988 8.52667 20.9148 8.452C20.8401 8.368 20.7141 8.326 20.5368 8.326H19.1788V3.622H20.5368C20.7141 3.622 20.8401 3.58467 20.9148 3.51C20.9988 3.426 21.0408 3.29533 21.0408 3.118V1.424C21.0408 1.24667 20.9988 1.12067 20.9148 1.046C20.8401 0.962 20.7141 0.92 20.5368 0.92H14.5728C14.3955 0.92 14.2648 0.962 14.1808 1.046C14.1061 1.12067 14.0688 1.24667 14.0688 1.424V3.118C14.0688 3.29533 14.1061 3.426 14.1808 3.51C14.2648 3.58467 14.3955 3.622 14.5728 3.622H15.9588V8.326H14.5728C14.3955 8.326 14.2648 8.368 14.1808 8.452C14.1061 8.52667 14.0688 8.65267 14.0688 8.83V10.496C14.0688 10.6733 14.1061 10.804 14.1808 10.888C14.2648 10.9627 14.3955 11 14.5728 11ZM19.7808 9.74H15.3288V9.6H17.4988V2.32H15.3288V2.18H19.7808V2.32H17.6388V9.6H19.7808V9.74ZM25.5779 6.758V7.192H31.0379V6.758C31.0379 6.506 31.0146 6.27267 30.9679 6.058C30.9306 5.84333 30.8792 5.64267 30.8139 5.456L29.8479 3.174C29.7452 2.93133 29.6379 2.73067 29.5259 2.572C29.4139 2.404 29.2272 2.32 28.9659 2.32H27.5939C27.3139 2.32 27.1179 2.404 27.0059 2.572C26.8939 2.73067 26.7912 2.92667 26.6979 3.16L25.8019 5.456C25.7366 5.64267 25.6806 5.84333 25.6339 6.058C25.5966 6.27267 25.5779 6.506 25.5779 6.758ZM27.8179 3.86C27.8552 3.776 27.8926 3.71533 27.9299 3.678C27.9766 3.64067 28.0279 3.622 28.0839 3.622H28.4339C28.4899 3.622 28.5366 3.64067 28.5739 3.678C28.6206 3.71533 28.6626 3.776 28.6999 3.86L29.3579 5.988H27.1599L27.8179 3.86ZM31.0379 9.74V7.332H25.5779V9.74H25.4379V6.758C25.4379 6.49667 25.4566 6.25867 25.4939 6.044C25.5406 5.82 25.6012 5.60533 25.6759 5.4L26.5719 3.104C26.6746 2.84267 26.7912 2.62333 26.9219 2.446C27.0526 2.26867 27.2766 2.18 27.5939 2.18H28.9659C29.2739 2.18 29.4886 2.26867 29.6099 2.446C29.7406 2.62333 29.8619 2.84733 29.9739 3.118L30.9399 5.4C31.0146 5.60533 31.0706 5.82 31.1079 6.044C31.1546 6.25867 31.1779 6.49667 31.1779 6.758V9.74H31.0379ZM27.0199 10.496V8.536H29.4979V10.496C29.4979 10.6733 29.5399 10.804 29.6239 10.888C29.7172 10.9627 29.8572 11 30.0439 11H32.1579C32.3352 11 32.4612 10.9627 32.5359 10.888C32.6199 10.804 32.6619 10.6733 32.6619 10.496V6.8C32.6619 6.52 32.6152 6.198 32.5219 5.834C32.4379 5.47 32.3026 5.04533 32.1159 4.56L30.8979 1.382C30.8419 1.22333 30.7532 1.10667 30.6319 1.032C30.5199 0.957333 30.3752 0.92 30.1979 0.92H26.4319C26.2452 0.92 26.0912 0.957333 25.9699 1.032C25.8579 1.10667 25.7739 1.22333 25.7179 1.382L24.4999 4.56C24.3132 5.04533 24.1732 5.47 24.0799 5.834C23.9959 6.198 23.9539 6.52 23.9539 6.8V10.496C23.9539 10.6733 23.9912 10.804 24.0659 10.888C24.1499 10.9627 24.2806 11 24.4579 11H26.5159C26.6932 11 26.8192 10.9627 26.8939 10.888C26.9779 10.804 27.0199 10.6733 27.0199 10.496ZM25.1439 12.526C25.1066 12.5633 25.0459 12.596 24.9619 12.624C24.8872 12.652 24.8032 12.666 24.7099 12.666H22.6519C22.4279 12.666 22.2646 12.6147 22.1619 12.512C22.0592 12.4093 22.0079 12.246 22.0079 12.022V8.326C22.0079 8.03667 22.0499 7.71 22.1339 7.346C22.2272 6.97267 22.3719 6.534 22.5679 6.03L23.7719 2.866C23.7999 2.782 23.8326 2.712 23.8699 2.656C23.9166 2.59067 23.9632 2.53467 24.0099 2.488L24.0239 2.474L25.8159 0.976C25.8906 0.910666 25.9792 0.863999 26.0819 0.836C26.1846 0.798666 26.3012 0.78 26.4319 0.78H30.1979C30.4126 0.78 30.5852 0.826666 30.7159 0.92C30.8559 1.004 30.9586 1.13933 31.0239 1.326L32.2419 4.504C32.4379 5.008 32.5779 5.44667 32.6619 5.82C32.7552 6.184 32.8019 6.51067 32.8019 6.8V10.496C32.8019 10.6173 32.7832 10.72 32.7459 10.804C32.7179 10.888 32.6712 10.958 32.6059 11.014L30.7859 12.526C30.7486 12.5633 30.6879 12.596 30.6039 12.624C30.5292 12.652 30.4452 12.666 30.3519 12.666H28.2379C28.0046 12.666 27.8319 12.61 27.7199 12.498C27.6079 12.3953 27.5519 12.2367 27.5519 12.022V10.202H27.1599V10.496C27.1599 10.6173 27.1412 10.72 27.1039 10.804C27.0759 10.888 27.0292 10.958 26.9639 11.014L25.1439 12.526ZM37.633 2.292L42.785 8.088V2.18H42.925V9.74H42.785V8.298L37.493 2.362C37.4837 2.35267 37.4697 2.34333 37.451 2.334C37.4417 2.32467 37.4323 2.32 37.423 2.32C37.4137 2.32 37.4043 2.32467 37.395 2.334C37.395 2.34333 37.395 2.35267 37.395 2.362V9.74H37.255V2.334C37.255 2.278 37.2737 2.236 37.311 2.208C37.3483 2.18 37.3857 2.166 37.423 2.166C37.4603 2.166 37.493 2.17533 37.521 2.194C37.549 2.21267 37.5863 2.24533 37.633 2.292ZM38.389 11C38.5663 11 38.6923 10.9627 38.767 10.888C38.851 10.804 38.893 10.6733 38.893 10.496V5.876L41.287 8.774V10.496C41.287 10.6733 41.3243 10.804 41.399 10.888C41.483 10.9627 41.6137 11 41.791 11H43.891C44.0683 11 44.1943 10.9627 44.269 10.888C44.353 10.804 44.395 10.6733 44.395 10.496V1.424C44.395 1.24667 44.353 1.12067 44.269 1.046C44.1943 0.962 44.0683 0.92 43.891 0.92H41.791C41.6137 0.92 41.483 0.962 41.399 1.046C41.3243 1.12067 41.287 1.24667 41.287 1.424V4.406L38.571 1.298C38.4497 1.158 38.3237 1.06 38.193 1.004C38.0717 0.948 37.9223 0.92 37.745 0.92H36.289C36.1117 0.92 35.981 0.962 35.897 1.046C35.8223 1.12067 35.785 1.24667 35.785 1.424V10.496C35.785 10.6733 35.8223 10.804 35.897 10.888C35.981 10.9627 36.1117 11 36.289 11H38.389ZM38.837 11.014L37.017 12.526C36.9797 12.5633 36.919 12.596 36.835 12.624C36.7603 12.652 36.6763 12.666 36.583 12.666H34.483C34.259 12.666 34.0957 12.6147 33.993 12.512C33.8903 12.4093 33.839 12.246 33.839 12.022V2.95C33.839 2.82867 33.853 2.726 33.881 2.642C33.9183 2.558 33.9697 2.488 34.035 2.432L35.841 0.906C35.8877 0.868666 35.9483 0.840666 36.023 0.821999C36.107 0.794 36.1957 0.78 36.289 0.78H37.745C37.9503 0.78 38.123 0.812666 38.263 0.877999C38.403 0.943333 38.543 1.05067 38.683 1.2L39.649 2.32L41.343 0.906C41.3897 0.868666 41.4503 0.840666 41.525 0.821999C41.609 0.794 41.6977 0.78 41.791 0.78H43.891C44.115 0.78 44.2783 0.831333 44.381 0.933999C44.4837 1.03667 44.535 1.2 44.535 1.424V10.496C44.535 10.6173 44.5163 10.72 44.479 10.804C44.451 10.888 44.4043 10.958 44.339 11.014L42.519 12.526C42.4817 12.5633 42.421 12.596 42.337 12.624C42.2623 12.652 42.1783 12.666 42.085 12.666H39.985C39.761 12.666 39.5977 12.6147 39.495 12.512C39.3923 12.4093 39.341 12.246 39.341 12.022V10.356L39.033 9.978V10.496C39.033 10.6173 39.0143 10.72 38.977 10.804C38.949 10.888 38.9023 10.958 38.837 11.014ZM48.4625 7.836H46.4465C46.1479 7.836 45.9519 7.794 45.8585 7.71C45.7745 7.626 45.7279 7.43 45.7185 7.122L45.6065 3.034C45.5972 2.85667 45.6019 2.726 45.6205 2.642C45.6485 2.54867 45.6952 2.474 45.7605 2.418L47.5805 0.891999C47.6272 0.854666 47.6925 0.826666 47.7765 0.807999C47.8699 0.789333 47.9819 0.78 48.1125 0.78H50.4225C50.7212 0.78 50.9125 0.822 50.9965 0.906C51.0805 0.99 51.1179 1.186 51.1085 1.494L50.9965 5.61C50.9872 5.76867 50.9685 5.89467 50.9405 5.988C50.9125 6.072 50.8705 6.142 50.8145 6.198L49.0085 7.71C48.9525 7.74733 48.8825 7.78 48.7985 7.808C48.7145 7.82667 48.6025 7.836 48.4625 7.836ZM50.2685 6.17C50.5112 6.17 50.6652 6.13733 50.7305 6.072C50.8052 5.99733 50.8472 5.83867 50.8565 5.596L50.9685 1.494C50.9779 1.25133 50.9452 1.09733 50.8705 1.032C50.8052 0.957333 50.6559 0.92 50.4225 0.92H48.1125C47.8699 0.92 47.7112 0.957333 47.6365 1.032C47.5712 1.09733 47.5432 1.25133 47.5525 1.494L47.6645 5.596C47.6739 5.83867 47.7112 5.99733 47.7765 6.072C47.8512 6.13733 48.0099 6.17 48.2525 6.17H50.2685ZM49.1905 2.18H49.3305V4.91H49.1905V2.18ZM57.4093 12.666H55.1413C54.908 12.666 54.74 12.6147 54.6373 12.512C54.544 12.4093 54.4973 12.246 54.4973 12.022V10.272L52.3833 7.444C52.1593 7.14533 52.01 6.884 51.9353 6.66C51.8606 6.436 51.8233 6.09533 51.8233 5.638V2.95C51.8233 2.82867 51.8373 2.726 51.8653 2.642C51.9026 2.558 51.954 2.488 52.0193 2.432L53.8253 0.906C53.872 0.868666 53.9326 0.840666 54.0073 0.821999C54.0913 0.794 54.18 0.78 54.2733 0.78H56.4293C56.6533 0.78 56.8166 0.831333 56.9193 0.933999C57.022 1.03667 57.0733 1.2 57.0733 1.424V3.72C57.0733 3.804 57.078 3.888 57.0873 3.972C57.0966 4.056 57.1246 4.14467 57.1713 4.238L57.3393 4.476V2.95C57.3393 2.82867 57.3533 2.726 57.3813 2.642C57.4186 2.558 57.47 2.488 57.5353 2.432L59.3413 0.906C59.388 0.868666 59.4486 0.840666 59.5233 0.821999C59.6073 0.794 59.696 0.78 59.7893 0.78H61.8753C62.0993 0.78 62.2626 0.831333 62.3653 0.933999C62.468 1.03667 62.5193 1.2 62.5193 1.424V4.112C62.5193 4.56933 62.482 4.91 62.4073 5.134C62.3326 5.358 62.1833 5.61933 61.9593 5.918L59.8593 8.76V10.496C59.8593 10.6173 59.8406 10.72 59.8033 10.804C59.7753 10.888 59.7286 10.958 59.6633 11.014L57.8433 12.526C57.806 12.5633 57.7453 12.596 57.6613 12.624C57.5866 12.652 57.5026 12.666 57.4093 12.666ZM59.2153 11C59.3926 11 59.5186 10.9627 59.5933 10.888C59.6773 10.804 59.7193 10.6733 59.7193 10.496V8.718L61.8473 5.834C62.0526 5.54467 62.1926 5.29267 62.2673 5.078C62.342 4.86333 62.3793 4.54133 62.3793 4.112V1.424C62.3793 1.24667 62.3373 1.12067 62.2533 1.046C62.1786 0.962 62.0526 0.92 61.8753 0.92H59.7893C59.612 0.92 59.4813 0.962 59.3973 1.046C59.3226 1.12067 59.2853 1.24667 59.2853 1.424V3.72C59.2853 3.81333 59.2806 3.91133 59.2713 4.014C59.262 4.11667 59.2246 4.21467 59.1593 4.308L58.5153 5.316C58.4686 5.4 58.4173 5.46067 58.3613 5.498C58.3146 5.53533 58.254 5.554 58.1793 5.554H58.0393C57.9646 5.554 57.8993 5.53533 57.8433 5.498C57.7966 5.46067 57.75 5.4 57.7033 5.316L57.0593 4.308C56.994 4.21467 56.9566 4.11667 56.9473 4.014C56.938 3.91133 56.9333 3.81333 56.9333 3.72V1.424C56.9333 1.24667 56.8913 1.12067 56.8073 1.046C56.7326 0.962 56.6066 0.92 56.4293 0.92H54.2733C54.096 0.92 53.9653 0.962 53.8813 1.046C53.8066 1.12067 53.7693 1.24667 53.7693 1.424V4.112C53.7693 4.54133 53.802 4.86333 53.8673 5.078C53.942 5.29267 54.0866 5.54467 54.3013 5.834L56.4433 8.704V10.496C56.4433 10.6733 56.4806 10.804 56.5553 10.888C56.6393 10.9627 56.77 11 56.9473 11H59.2153ZM58.2493 7.346H58.1513V9.74H58.0113V7.346H57.8713C57.666 7.346 57.4793 7.29933 57.3113 7.206C57.1526 7.11267 56.9986 6.96333 56.8493 6.758L55.4913 4.868C55.3886 4.728 55.328 4.56467 55.3093 4.378C55.2906 4.19133 55.2813 3.99533 55.2813 3.79V2.18H55.4213V3.79C55.4213 3.986 55.4306 4.17267 55.4493 4.35C55.468 4.518 55.524 4.672 55.6173 4.812L56.9753 6.702C57.0966 6.88867 57.2366 7.01933 57.3953 7.094C57.554 7.16867 57.7126 7.206 57.8713 7.206H58.2493C58.4266 7.206 58.5853 7.16867 58.7253 7.094C58.8746 7.01 59.0193 6.87933 59.1593 6.702L60.5593 4.812C60.6526 4.69067 60.7086 4.54133 60.7273 4.364C60.746 4.17733 60.7553 3.986 60.7553 3.79V2.18H60.8953V3.79C60.8953 3.99533 60.886 4.19133 60.8673 4.378C60.858 4.55533 60.7973 4.71867 60.6853 4.868L59.2853 6.758C59.136 6.96333 58.9773 7.11267 58.8093 7.206C58.6506 7.29933 58.464 7.346 58.2493 7.346ZM66.4295 6.758V7.192H71.8895V6.758C71.8895 6.506 71.8661 6.27267 71.8195 6.058C71.7821 5.84333 71.7308 5.64267 71.6655 5.456L70.6995 3.174C70.5968 2.93133 70.4895 2.73067 70.3775 2.572C70.2655 2.404 70.0788 2.32 69.8175 2.32H68.4455C68.1655 2.32 67.9695 2.404 67.8575 2.572C67.7455 2.73067 67.6428 2.92667 67.5495 3.16L66.6535 5.456C66.5881 5.64267 66.5321 5.84333 66.4855 6.058C66.4481 6.27267 66.4295 6.506 66.4295 6.758ZM68.6695 3.86C68.7068 3.776 68.7441 3.71533 68.7815 3.678C68.8281 3.64067 68.8795 3.622 68.9355 3.622H69.2855C69.3415 3.622 69.3881 3.64067 69.4255 3.678C69.4721 3.71533 69.5141 3.776 69.5515 3.86L70.2095 5.988H68.0115L68.6695 3.86ZM71.8895 9.74V7.332H66.4295V9.74H66.2895V6.758C66.2895 6.49667 66.3081 6.25867 66.3455 6.044C66.3921 5.82 66.4528 5.60533 66.5275 5.4L67.4235 3.104C67.5261 2.84267 67.6428 2.62333 67.7735 2.446C67.9041 2.26867 68.1281 2.18 68.4455 2.18H69.8175C70.1255 2.18 70.3401 2.26867 70.4615 2.446C70.5921 2.62333 70.7135 2.84733 70.8255 3.118L71.7915 5.4C71.8661 5.60533 71.9221 5.82 71.9595 6.044C72.0061 6.25867 72.0295 6.49667 72.0295 6.758V9.74H71.8895ZM67.8715 10.496V8.536H70.3495V10.496C70.3495 10.6733 70.3915 10.804 70.4755 10.888C70.5688 10.9627 70.7088 11 70.8955 11H73.0095C73.1868 11 73.3128 10.9627 73.3875 10.888C73.4715 10.804 73.5135 10.6733 73.5135 10.496V6.8C73.5135 6.52 73.4668 6.198 73.3735 5.834C73.2895 5.47 73.1541 5.04533 72.9675 4.56L71.7495 1.382C71.6935 1.22333 71.6048 1.10667 71.4835 1.032C71.3715 0.957333 71.2268 0.92 71.0495 0.92H67.2835C67.0968 0.92 66.9428 0.957333 66.8215 1.032C66.7095 1.10667 66.6255 1.22333 66.5695 1.382L65.3515 4.56C65.1648 5.04533 65.0248 5.47 64.9315 5.834C64.8475 6.198 64.8055 6.52 64.8055 6.8V10.496C64.8055 10.6733 64.8428 10.804 64.9175 10.888C65.0015 10.9627 65.1321 11 65.3095 11H67.3675C67.5448 11 67.6708 10.9627 67.7455 10.888C67.8295 10.804 67.8715 10.6733 67.8715 10.496ZM65.9955 12.526C65.9581 12.5633 65.8975 12.596 65.8135 12.624C65.7388 12.652 65.6548 12.666 65.5615 12.666H63.5035C63.2795 12.666 63.1161 12.6147 63.0135 12.512C62.9108 12.4093 62.8595 12.246 62.8595 12.022V8.326C62.8595 8.03667 62.9015 7.71 62.9855 7.346C63.0788 6.97267 63.2235 6.534 63.4195 6.03L64.6235 2.866C64.6515 2.782 64.6841 2.712 64.7215 2.656C64.7681 2.59067 64.8148 2.53467 64.8615 2.488L64.8755 2.474L66.6675 0.976C66.7421 0.910666 66.8308 0.863999 66.9335 0.836C67.0361 0.798666 67.1528 0.78 67.2835 0.78H71.0495C71.2641 0.78 71.4368 0.826666 71.5675 0.92C71.7075 1.004 71.8101 1.13933 71.8755 1.326L73.0935 4.504C73.2895 5.008 73.4295 5.44667 73.5135 5.82C73.6068 6.184 73.6535 6.51067 73.6535 6.8V10.496C73.6535 10.6173 73.6348 10.72 73.5975 10.804C73.5695 10.888 73.5228 10.958 73.4575 11.014L71.6375 12.526C71.6001 12.5633 71.5395 12.596 71.4555 12.624C71.3808 12.652 71.2968 12.666 71.2035 12.666H69.0895C68.8561 12.666 68.6835 12.61 68.5715 12.498C68.4595 12.3953 68.4035 12.2367 68.4035 12.022V10.202H68.0115V10.496C68.0115 10.6173 67.9928 10.72 67.9555 10.804C67.9275 10.888 67.8808 10.958 67.8155 11.014L65.9955 12.526ZM78.4845 2.292L83.6365 8.088V2.18H83.7765V9.74H83.6365V8.298L78.3445 2.362C78.3352 2.35267 78.3212 2.34333 78.3025 2.334C78.2932 2.32467 78.2839 2.32 78.2745 2.32C78.2652 2.32 78.2559 2.32467 78.2465 2.334C78.2465 2.34333 78.2465 2.35267 78.2465 2.362V9.74H78.1065V2.334C78.1065 2.278 78.1252 2.236 78.1625 2.208C78.1999 2.18 78.2372 2.166 78.2745 2.166C78.3119 2.166 78.3445 2.17533 78.3725 2.194C78.4005 2.21267 78.4379 2.24533 78.4845 2.292ZM79.2405 11C79.4179 11 79.5439 10.9627 79.6185 10.888C79.7025 10.804 79.7445 10.6733 79.7445 10.496V5.876L82.1385 8.774V10.496C82.1385 10.6733 82.1759 10.804 82.2505 10.888C82.3345 10.9627 82.4652 11 82.6425 11H84.7425C84.9199 11 85.0459 10.9627 85.1205 10.888C85.2045 10.804 85.2465 10.6733 85.2465 10.496V1.424C85.2465 1.24667 85.2045 1.12067 85.1205 1.046C85.0459 0.962 84.9199 0.92 84.7425 0.92H82.6425C82.4652 0.92 82.3345 0.962 82.2505 1.046C82.1759 1.12067 82.1385 1.24667 82.1385 1.424V4.406L79.4225 1.298C79.3012 1.158 79.1752 1.06 79.0445 1.004C78.9232 0.948 78.7739 0.92 78.5965 0.92H77.1405C76.9632 0.92 76.8325 0.962 76.7485 1.046C76.6739 1.12067 76.6365 1.24667 76.6365 1.424V10.496C76.6365 10.6733 76.6739 10.804 76.7485 10.888C76.8325 10.9627 76.9632 11 77.1405 11H79.2405ZM79.6885 11.014L77.8685 12.526C77.8312 12.5633 77.7705 12.596 77.6865 12.624C77.6119 12.652 77.5279 12.666 77.4345 12.666H75.3345C75.1105 12.666 74.9472 12.6147 74.8445 12.512C74.7419 12.4093 74.6905 12.246 74.6905 12.022V2.95C74.6905 2.82867 74.7045 2.726 74.7325 2.642C74.7699 2.558 74.8212 2.488 74.8865 2.432L76.6925 0.906C76.7392 0.868666 76.7999 0.840666 76.8745 0.821999C76.9585 0.794 77.0472 0.78 77.1405 0.78H78.5965C78.8019 0.78 78.9745 0.812666 79.1145 0.877999C79.2545 0.943333 79.3945 1.05067 79.5345 1.2L80.5005 2.32L82.1945 0.906C82.2412 0.868666 82.3019 0.840666 82.3765 0.821999C82.4605 0.794 82.5492 0.78 82.6425 0.78H84.7425C84.9665 0.78 85.1299 0.831333 85.2325 0.933999C85.3352 1.03667 85.3865 1.2 85.3865 1.424V10.496C85.3865 10.6173 85.3679 10.72 85.3305 10.804C85.3025 10.888 85.2559 10.958 85.1905 11.014L83.3705 12.526C83.3332 12.5633 83.2725 12.596 83.1885 12.624C83.1139 12.652 83.0299 12.666 82.9365 12.666H80.8365C80.6125 12.666 80.4492 12.6147 80.3465 12.512C80.2439 12.4093 80.1925 12.246 80.1925 12.022V10.356L79.8845 9.978V10.496C79.8845 10.6173 79.8659 10.72 79.8285 10.804C79.8005 10.888 79.7539 10.958 79.6885 11.014Z" fill="#B5B5B5"/>
</svg>
