<svg width="146" height="25" viewBox="0 0 146 25" fill="none" xmlns="http://www.w3.org/2000/svg">
        <path d="M13.1836 0C14.3672 0 15.4395 0.175781 16.4004 0.527344C17.3613 0.878906 18.1758 1.35938 18.8438 1.96875C19.5234 2.57812 20.0449 3.29297 20.4082 4.11328C20.7715 4.92188 20.9531 5.7832 20.9531 6.69727V17.3848C20.9531 18.2988 20.7715 19.166 20.4082 19.9863C20.0449 20.7949 19.5234 21.5039 18.8438 22.1133C18.1758 22.7227 17.3613 23.2031 16.4004 23.5547C15.4395 23.9062 14.3672 24.082 13.1836 24.082H7.76953C6.58594 24.082 5.51367 23.9062 4.55273 23.5547C3.5918 23.2031 2.77148 22.7227 2.0918 22.1133C1.42383 21.5039 0.908203 20.7949 0.544922 19.9863C0.181641 19.166 0 18.2988 0 17.3848V6.69727C0 5.7832 0.181641 4.92188 0.544922 4.11328C0.908203 3.29297 1.42383 2.57812 2.0918 1.96875C2.77148 1.35938 3.5918 0.878906 4.55273 0.527344C5.51367 0.175781 6.58594 0 7.76953 0H13.1836ZM16.8398 4.42969L16.5938 2.95312L15.4863 1.82812L13.6758 1.58203H8.96484L7.17188 1.82812L6.04688 2.95312L5.83594 4.42969V13.2891L6.04688 14.8008L7.20703 15.9082L8.96484 16.1191H12.0938L13.4648 18.8262L15.1172 18.0352L14.1504 16.0488L15.4863 15.9082L16.5938 14.8008L16.8398 13.2891V4.42969ZM14.7305 14.0801L13.5703 14.2559H13.2188L12.1641 12.1992L10.5469 13.0957L11.0918 14.2559H9.07031L7.92773 14.0801L7.66406 13.0254V4.60547L7.83984 3.63867L9.07031 3.44531H13.5703L14.8008 3.63867L14.9766 4.67578V13.0957L14.7305 14.0801Z" fill="#60439E" />
        <path d="M27.1758 14.2559V16.1191H37.3359V14.2559H33.2051V3.44531H37.3359V1.58203H27.1758V3.44531H31.3242V14.2559H27.1758ZM33.9961 0C35.1797 0 36.252 0.175781 37.2129 0.527344C38.1738 0.878906 38.9883 1.35938 39.6562 1.96875C40.3359 2.57812 40.8574 3.29297 41.2207 4.11328C41.584 4.92188 41.7656 5.7832 41.7656 6.69727V17.3848C41.7656 18.2988 41.584 19.166 41.2207 19.9863C40.8574 20.7949 40.3359 21.5039 39.6562 22.1133C38.9883 22.7227 38.1738 23.2031 37.2129 23.5547C36.252 23.9062 35.1797 24.082 33.9961 24.082H28.582C27.3984 24.082 26.3262 23.9062 25.3652 23.5547C24.4043 23.2031 23.584 22.7227 22.9043 22.1133C22.2363 21.5039 21.7207 20.7949 21.3574 19.9863C20.9941 19.166 20.8125 18.2988 20.8125 17.3848V6.69727C20.8125 5.7832 20.9941 4.92188 21.3574 4.11328C21.7207 3.29297 22.2363 2.57812 22.9043 1.96875C23.584 1.35938 24.4043 0.878906 25.3652 0.527344C26.3262 0.175781 27.3984 0 28.582 0H33.9961Z" fill="#60439E" />
        <path d="M56.9707 16.1016V2.91797L55.7754 1.79297L54.0176 1.58203H50.0098L47.9531 1.82812L48.3926 3.74414L50.0449 3.41016H53.9648L55.0195 3.63867L55.2656 4.57031V8.66602L54.0176 8.45508H50.0098L48.252 8.71875L47.127 9.82617L46.8809 11.2676V13.3242L47.127 14.8008L48.252 15.9082L50.0098 16.1191H53.8594L55.2305 15.9082L56.9707 16.1016ZM55.2656 14.0801L53.8945 14.2559H50.1152L49.0078 14.0801L48.7617 13.0254V11.5137L48.9023 10.5117L50.1152 10.3359H53.9297L55.2656 10.4766V14.0801ZM54.8086 0C55.9922 0 57.0645 0.175781 58.0254 0.527344C58.9863 0.878906 59.8008 1.35938 60.4688 1.96875C61.1484 2.57812 61.6699 3.29297 62.0332 4.11328C62.3965 4.92188 62.5781 5.7832 62.5781 6.69727V17.3848C62.5781 18.2988 62.3965 19.166 62.0332 19.9863C61.6699 20.7949 61.1484 21.5039 60.4688 22.1133C59.8008 22.7227 58.9863 23.2031 58.0254 23.5547C57.0645 23.9062 55.9922 24.082 54.8086 24.082H49.3945C48.2109 24.082 47.1387 23.9062 46.1777 23.5547C45.2168 23.2031 44.3965 22.7227 43.7168 22.1133C43.0488 21.5039 42.5332 20.7949 42.1699 19.9863C41.8066 19.166 41.625 18.2988 41.625 17.3848V6.69727C41.625 5.7832 41.8066 4.92188 42.1699 4.11328C42.5332 3.29297 43.0488 2.57812 43.7168 1.96875C44.3965 1.35938 45.2168 0.878906 46.1777 0.527344C47.1387 0.175781 48.2109 0 49.3945 0H54.8086Z" fill="#60439E" />
        <path d="M78.8906 4.39453L78.6445 2.91797L77.5195 1.79297L75.7266 1.58203H71.332L68.168 2.02148V16.1191H70.0312V3.63867L71.4023 3.41016H75.6211L76.834 3.60352L77.0098 4.64062V16.1191H78.8906V4.39453ZM75.6211 0C76.8047 0 77.877 0.175781 78.8379 0.527344C79.7988 0.878906 80.6133 1.35938 81.2812 1.96875C81.9609 2.57812 82.4824 3.29297 82.8457 4.11328C83.209 4.92188 83.3906 5.7832 83.3906 6.69727V17.3848C83.3906 18.2988 83.209 19.166 82.8457 19.9863C82.4824 20.7949 81.9609 21.5039 81.2812 22.1133C80.6133 22.7227 79.7988 23.2031 78.8379 23.5547C77.877 23.9062 76.8047 24.082 75.6211 24.082H70.207C69.0234 24.082 67.9512 23.9062 66.9902 23.5547C66.0293 23.2031 65.209 22.7227 64.5293 22.1133C63.8613 21.5039 63.3457 20.7949 62.9824 19.9863C62.6191 19.166 62.4375 18.2988 62.4375 17.3848V6.69727C62.4375 5.7832 62.6191 4.92188 62.9824 4.11328C63.3457 3.29297 63.8613 2.57812 64.5293 1.96875C65.209 1.35938 66.0293 0.878906 66.9902 0.527344C67.9512 0.175781 69.0234 0 70.207 0H75.6211Z" fill="#60439E" />
        <path d="M91.3887 1.58203H89.1914L93.5859 12.0234V16.1191H95.4492V12.0586L99.9141 1.58203H97.7168L94.5176 9.47461L91.3887 1.58203ZM96.4336 0C97.6172 0 98.6895 0.175781 99.6504 0.527344C100.611 0.878906 101.426 1.35938 102.094 1.96875C102.773 2.57812 103.295 3.29297 103.658 4.11328C104.021 4.92188 104.203 5.7832 104.203 6.69727V17.3848C104.203 18.2988 104.021 19.166 103.658 19.9863C103.295 20.7949 102.773 21.5039 102.094 22.1133C101.426 22.7227 100.611 23.2031 99.6504 23.5547C98.6895 23.9062 97.6172 24.082 96.4336 24.082H91.0195C89.8359 24.082 88.7637 23.9062 87.8027 23.5547C86.8418 23.2031 86.0215 22.7227 85.3418 22.1133C84.6738 21.5039 84.1582 20.7949 83.7949 19.9863C83.4316 19.166 83.25 18.2988 83.25 17.3848V6.69727C83.25 5.7832 83.4316 4.92188 83.7949 4.11328C84.1582 3.29297 84.6738 2.57812 85.3418 1.96875C86.0215 1.35938 86.8418 0.878906 87.8027 0.527344C88.7637 0.175781 89.8359 0 91.0195 0H96.4336Z" fill="#60439E" />
        <path d="M119.408 16.1016V2.91797L118.213 1.79297L116.455 1.58203H112.447L110.391 1.82812L110.83 3.74414L112.482 3.41016H116.402L117.457 3.63867L117.703 4.57031V8.66602L116.455 8.45508H112.447L110.689 8.71875L109.564 9.82617L109.318 11.2676V13.3242L109.564 14.8008L110.689 15.9082L112.447 16.1191H116.297L117.668 15.9082L119.408 16.1016ZM117.703 14.0801L116.332 14.2559H112.553L111.445 14.0801L111.199 13.0254V11.5137L111.34 10.5117L112.553 10.3359H116.367L117.703 10.4766V14.0801ZM117.246 0C118.43 0 119.502 0.175781 120.463 0.527344C121.424 0.878906 122.238 1.35938 122.906 1.96875C123.586 2.57812 124.107 3.29297 124.471 4.11328C124.834 4.92188 125.016 5.7832 125.016 6.69727V17.3848C125.016 18.2988 124.834 19.166 124.471 19.9863C124.107 20.7949 123.586 21.5039 122.906 22.1133C122.238 22.7227 121.424 23.2031 120.463 23.5547C119.502 23.9062 118.43 24.082 117.246 24.082H111.832C110.648 24.082 109.576 23.9062 108.615 23.5547C107.654 23.2031 106.834 22.7227 106.154 22.1133C105.486 21.5039 104.971 20.7949 104.607 19.9863C104.244 19.166 104.062 18.2988 104.062 17.3848V6.69727C104.062 5.7832 104.244 4.92188 104.607 4.11328C104.971 3.29297 105.486 2.57812 106.154 1.96875C106.834 1.35938 107.654 0.878906 108.615 0.527344C109.576 0.175781 110.648 0 111.832 0H117.246Z" fill="#60439E" />
        <path d="M141.328 4.39453L141.082 2.91797L139.957 1.79297L138.164 1.58203H133.77L130.605 2.02148V16.1191H132.469V3.63867L133.84 3.41016H138.059L139.271 3.60352L139.447 4.64062V16.1191H141.328V4.39453ZM138.059 0C139.242 0 140.314 0.175781 141.275 0.527344C142.236 0.878906 143.051 1.35938 143.719 1.96875C144.398 2.57812 144.92 3.29297 145.283 4.11328C145.646 4.92188 145.828 5.7832 145.828 6.69727V17.3848C145.828 18.2988 145.646 19.166 145.283 19.9863C144.92 20.7949 144.398 21.5039 143.719 22.1133C143.051 22.7227 142.236 23.2031 141.275 23.5547C140.314 23.9062 139.242 24.082 138.059 24.082H132.645C131.461 24.082 130.389 23.9062 129.428 23.5547C128.467 23.2031 127.646 22.7227 126.967 22.1133C126.299 21.5039 125.783 20.7949 125.42 19.9863C125.057 19.166 124.875 18.2988 124.875 17.3848V6.69727C124.875 5.7832 125.057 4.92188 125.42 4.11328C125.783 3.29297 126.299 2.57812 126.967 1.96875C127.646 1.35938 128.467 0.878906 129.428 0.527344C130.389 0.175781 131.461 0 132.645 0H138.059Z" fill="#60439E" />
</svg>