<svg width="219" height="35" viewBox="0 0 219 35" fill="none" xmlns="http://www.w3.org/2000/svg">
<path d="M14.516 34.524H8.972C8.396 34.524 7.976 34.392 7.712 34.128C7.448 33.864 7.316 33.444 7.316 32.868V31.212C5.924 30.972 4.76 30.564 3.824 29.988C2.912 29.436 2.192 28.776 1.664 28.008C1.136 27.24 0.764 26.4 0.548 25.488C0.332 24.576 0.224 23.652 0.224 22.716V11.844C0.224 10.74 0.38 9.72 0.692 8.784C1.004 7.824 1.568 7.008 2.384 6.336L7.064 2.448C7.904 1.728 9.068 1.176 10.556 0.791998C12.068 0.383998 14.024 0.179998 16.424 0.179998C18.776 0.179998 20.696 0.371998 22.184 0.755999C23.696 1.14 24.872 1.68 25.712 2.376C26.576 3.048 27.164 3.864 27.476 4.824C27.788 5.76 27.944 6.792 27.944 7.92V19.872C27.944 20.976 27.788 21.996 27.476 22.932C27.164 23.868 26.6 24.672 25.784 25.344L21.14 29.232C21.068 29.28 20.996 29.328 20.924 29.376C20.876 29.448 20.816 29.496 20.744 29.52C20.72 29.688 20.66 29.832 20.564 29.952C20.492 30.072 20.408 30.18 20.312 30.276L15.632 34.164C15.536 34.26 15.38 34.344 15.164 34.416C14.972 34.488 14.756 34.524 14.516 34.524ZM19.16 30.24C19.616 30.24 19.94 30.132 20.132 29.916C20.348 29.724 20.456 29.4 20.456 28.944V26.964C21.872 26.772 23.036 26.46 23.948 26.028C24.884 25.596 25.616 25.08 26.144 24.48C26.672 23.88 27.044 23.196 27.26 22.428C27.476 21.636 27.584 20.784 27.584 19.872V7.92C27.584 6.816 27.416 5.82 27.08 4.932C26.768 4.02 26.192 3.24 25.352 2.592C24.536 1.944 23.396 1.44 21.932 1.08C20.492 0.719999 18.656 0.539999 16.424 0.539999C14.192 0.539999 12.344 0.719999 10.88 1.08C9.416 1.44 8.264 1.944 7.424 2.592C6.608 3.24 6.032 4.02 5.696 4.932C5.384 5.82 5.228 6.816 5.228 7.92V19.872C5.228 21.672 5.708 23.208 6.668 24.48C7.652 25.728 9.536 26.556 12.32 26.964V28.944C12.32 29.4 12.416 29.724 12.608 29.916C12.824 30.132 13.16 30.24 13.616 30.24H19.16ZM16.172 27V24.228C13.436 24.204 11.576 23.748 10.592 22.86C9.608 21.972 9.116 20.808 9.116 19.368V8.748C9.116 7.308 9.62 6.144 10.628 5.256C11.636 4.344 13.544 3.888 16.352 3.888C19.16 3.888 21.08 4.344 22.112 5.256C23.144 6.144 23.66 7.308 23.66 8.748V19.368C23.66 20.808 23.156 21.972 22.148 22.86C21.14 23.748 19.268 24.204 16.532 24.228V27H16.172ZM9.476 19.368C9.476 20.712 9.956 21.804 10.916 22.644C11.876 23.46 13.688 23.868 16.352 23.868C19.016 23.868 20.84 23.46 21.824 22.644C22.808 21.804 23.3 20.712 23.3 19.368V8.748C23.3 7.404 22.808 6.324 21.824 5.508C20.84 4.668 19.016 4.248 16.352 4.248C13.688 4.248 11.876 4.668 10.916 5.508C9.956 6.324 9.476 7.404 9.476 8.748V19.368ZM13.4 19.08V9.252C13.4 8.796 13.58 8.412 13.94 8.1C14.3 7.764 15.128 7.596 16.424 7.596C17.72 7.596 18.548 7.764 18.908 8.1C19.268 8.412 19.448 8.796 19.448 9.252V19.08C19.448 19.56 19.268 19.968 18.908 20.304C18.548 20.616 17.72 20.772 16.424 20.772C15.128 20.772 14.3 20.616 13.94 20.304C13.58 19.968 13.4 19.56 13.4 19.08ZM13.76 19.08C13.76 19.32 13.808 19.536 13.904 19.728C14 19.896 14.18 20.04 14.444 20.16V13.176C14.444 12.936 14.396 12.732 14.3 12.564C14.204 12.372 14.024 12.228 13.76 12.132V19.08ZM47.1649 31.284H31.8289C31.2529 31.284 30.8329 31.152 30.5689 30.888C30.3049 30.624 30.1729 30.204 30.1729 29.628V25.344C30.1729 25.032 30.2089 24.768 30.2809 24.552C30.3769 24.336 30.5089 24.156 30.6769 24.012L35.0329 20.34V12.312H31.8289C31.2529 12.312 30.8329 12.18 30.5689 11.916C30.3049 11.652 30.1729 11.232 30.1729 10.656V6.3C30.1729 5.988 30.2089 5.724 30.2809 5.508C30.3769 5.292 30.5089 5.112 30.6769 4.968L35.3209 1.044C35.4409 0.947999 35.5969 0.875999 35.7889 0.827998C36.0049 0.755999 36.2329 0.719999 36.4729 0.719999H51.8089C52.3849 0.719999 52.8049 0.851999 53.0689 1.116C53.3329 1.38 53.4649 1.8 53.4649 2.376V6.732C53.4649 7.044 53.4169 7.308 53.3209 7.524C53.2489 7.74 53.1289 7.92 52.9609 8.064L48.6769 11.664V19.764H51.8089C52.3849 19.764 52.8049 19.896 53.0689 20.16C53.3329 20.424 53.4649 20.844 53.4649 21.42V25.704C53.4649 26.016 53.4169 26.28 53.3209 26.496C53.2489 26.712 53.1289 26.892 52.9609 27.036L48.2809 30.924C48.1849 31.02 48.0289 31.104 47.8129 31.176C47.6209 31.248 47.4049 31.284 47.1649 31.284ZM36.4729 27H51.8089C52.2649 27 52.5889 26.904 52.7809 26.712C52.9969 26.496 53.1049 26.16 53.1049 25.704V21.42C53.1049 20.964 52.9969 20.64 52.7809 20.448C52.5889 20.232 52.2649 20.124 51.8089 20.124H48.3169V8.028H51.8089C52.2649 8.028 52.5889 7.932 52.7809 7.74C52.9969 7.524 53.1049 7.188 53.1049 6.732V2.376C53.1049 1.92 52.9969 1.596 52.7809 1.404C52.5889 1.188 52.2649 1.08 51.8089 1.08H36.4729C36.0169 1.08 35.6809 1.188 35.4649 1.404C35.2729 1.596 35.1769 1.92 35.1769 2.376V6.732C35.1769 7.188 35.2729 7.524 35.4649 7.74C35.6809 7.932 36.0169 8.028 36.4729 8.028H40.0369V20.124H36.4729C36.0169 20.124 35.6809 20.232 35.4649 20.448C35.2729 20.64 35.1769 20.964 35.1769 21.42V25.704C35.1769 26.16 35.2729 26.496 35.4649 26.712C35.6809 26.904 36.0169 27 36.4729 27ZM49.8649 23.76H38.4169V23.4H43.9969V4.68H38.4169V4.32H49.8649V4.68H44.3569V23.4H49.8649V23.76ZM64.7717 16.092V17.208H78.8117V16.092C78.8117 15.444 78.7517 14.844 78.6317 14.292C78.5357 13.74 78.4037 13.224 78.2357 12.744L75.7517 6.876C75.4877 6.252 75.2117 5.736 74.9237 5.328C74.6357 4.896 74.1557 4.68 73.4837 4.68H69.9557C69.2357 4.68 68.7317 4.896 68.4437 5.328C68.1557 5.736 67.8917 6.24 67.6517 6.84L65.3477 12.744C65.1797 13.224 65.0357 13.74 64.9157 14.292C64.8197 14.844 64.7717 15.444 64.7717 16.092ZM70.5317 8.64C70.6277 8.424 70.7237 8.268 70.8197 8.172C70.9397 8.076 71.0717 8.028 71.2157 8.028H72.1157C72.2597 8.028 72.3797 8.076 72.4757 8.172C72.5957 8.268 72.7037 8.424 72.7997 8.64L74.4917 14.112H68.8397L70.5317 8.64ZM78.8117 23.76V17.568H64.7717V23.76H64.4117V16.092C64.4117 15.42 64.4597 14.808 64.5557 14.256C64.6757 13.68 64.8317 13.128 65.0237 12.6L67.3277 6.696C67.5917 6.024 67.8917 5.46 68.2277 5.004C68.5637 4.548 69.1397 4.32 69.9557 4.32H73.4837C74.2757 4.32 74.8277 4.548 75.1397 5.004C75.4757 5.46 75.7877 6.036 76.0757 6.732L78.5597 12.6C78.7517 13.128 78.8957 13.68 78.9917 14.256C79.1117 14.808 79.1717 15.42 79.1717 16.092V23.76H78.8117ZM68.4797 25.704V20.664H74.8517V25.704C74.8517 26.16 74.9597 26.496 75.1757 26.712C75.4157 26.904 75.7757 27 76.2557 27H81.6917C82.1477 27 82.4717 26.904 82.6637 26.712C82.8797 26.496 82.9877 26.16 82.9877 25.704V16.2C82.9877 15.48 82.8677 14.652 82.6277 13.716C82.4117 12.78 82.0637 11.688 81.5837 10.44L78.4517 2.268C78.3077 1.86 78.0797 1.56 77.7677 1.368C77.4797 1.176 77.1077 1.08 76.6517 1.08H66.9677C66.4877 1.08 66.0917 1.176 65.7797 1.368C65.4917 1.56 65.2757 1.86 65.1317 2.268L61.9997 10.44C61.5197 11.688 61.1597 12.78 60.9197 13.716C60.7037 14.652 60.5957 15.48 60.5957 16.2V25.704C60.5957 26.16 60.6917 26.496 60.8837 26.712C61.0997 26.904 61.4357 27 61.8917 27H67.1837C67.6397 27 67.9637 26.904 68.1557 26.712C68.3717 26.496 68.4797 26.16 68.4797 25.704ZM63.6557 30.924C63.5597 31.02 63.4037 31.104 63.1877 31.176C62.9957 31.248 62.7797 31.284 62.5397 31.284H57.2477C56.6717 31.284 56.2517 31.152 55.9877 30.888C55.7237 30.624 55.5917 30.204 55.5917 29.628V20.124C55.5917 19.38 55.6997 18.54 55.9157 17.604C56.1557 16.644 56.5277 15.516 57.0317 14.22L60.1277 6.084C60.1997 5.868 60.2837 5.688 60.3797 5.544C60.4997 5.376 60.6197 5.232 60.7397 5.112L60.7757 5.076L65.3837 1.224C65.5757 1.056 65.8037 0.935999 66.0677 0.864C66.3317 0.767999 66.6317 0.719999 66.9677 0.719999H76.6517C77.2037 0.719999 77.6477 0.839999 77.9837 1.08C78.3437 1.296 78.6077 1.644 78.7757 2.124L81.9077 10.296C82.4117 11.592 82.7717 12.72 82.9877 13.68C83.2277 14.616 83.3477 15.456 83.3477 16.2V25.704C83.3477 26.016 83.2997 26.28 83.2037 26.496C83.1317 26.712 83.0117 26.892 82.8437 27.036L78.1637 30.924C78.0677 31.02 77.9117 31.104 77.6957 31.176C77.5037 31.248 77.2877 31.284 77.0477 31.284H71.6117C71.0117 31.284 70.5677 31.14 70.2797 30.852C69.9917 30.588 69.8477 30.18 69.8477 29.628V24.948H68.8397V25.704C68.8397 26.016 68.7917 26.28 68.6957 26.496C68.6237 26.712 68.5037 26.892 68.3357 27.036L63.6557 30.924ZM95.7705 4.608L109.019 19.512V4.32H109.379V23.76H109.019V20.052L95.4105 4.788C95.3865 4.764 95.3505 4.74 95.3025 4.716C95.2785 4.692 95.2545 4.68 95.2305 4.68C95.2065 4.68 95.1825 4.692 95.1585 4.716C95.1585 4.74 95.1585 4.764 95.1585 4.788V23.76H94.7985V4.716C94.7985 4.572 94.8465 4.464 94.9425 4.392C95.0385 4.32 95.1345 4.284 95.2305 4.284C95.3265 4.284 95.4105 4.308 95.4825 4.356C95.5545 4.404 95.6505 4.488 95.7705 4.608ZM97.7145 27C98.1705 27 98.4945 26.904 98.6865 26.712C98.9025 26.496 99.0105 26.16 99.0105 25.704V13.824L105.167 21.276V25.704C105.167 26.16 105.263 26.496 105.455 26.712C105.671 26.904 106.007 27 106.463 27H111.863C112.319 27 112.643 26.904 112.835 26.712C113.051 26.496 113.159 26.16 113.159 25.704V2.376C113.159 1.92 113.051 1.596 112.835 1.404C112.643 1.188 112.319 1.08 111.863 1.08H106.463C106.007 1.08 105.671 1.188 105.455 1.404C105.263 1.596 105.167 1.92 105.167 2.376V10.044L98.1825 2.052C97.8705 1.692 97.5465 1.44 97.2105 1.296C96.8985 1.152 96.5145 1.08 96.0585 1.08H92.3145C91.8585 1.08 91.5225 1.188 91.3065 1.404C91.1145 1.596 91.0185 1.92 91.0185 2.376V25.704C91.0185 26.16 91.1145 26.496 91.3065 26.712C91.5225 26.904 91.8585 27 92.3145 27H97.7145ZM98.8665 27.036L94.1865 30.924C94.0905 31.02 93.9345 31.104 93.7185 31.176C93.5265 31.248 93.3105 31.284 93.0705 31.284H87.6705C87.0945 31.284 86.6745 31.152 86.4105 30.888C86.1465 30.624 86.0145 30.204 86.0145 29.628V6.3C86.0145 5.988 86.0505 5.724 86.1225 5.508C86.2185 5.292 86.3505 5.112 86.5185 4.968L91.1625 1.044C91.2825 0.947999 91.4385 0.875999 91.6305 0.827998C91.8465 0.755999 92.0745 0.719999 92.3145 0.719999H96.0585C96.5865 0.719999 97.0305 0.803999 97.3905 0.971998C97.7505 1.14 98.1105 1.416 98.4705 1.8L100.955 4.68L105.311 1.044C105.431 0.947999 105.587 0.875999 105.779 0.827998C105.995 0.755999 106.223 0.719999 106.463 0.719999H111.863C112.439 0.719999 112.859 0.851999 113.123 1.116C113.387 1.38 113.519 1.8 113.519 2.376V25.704C113.519 26.016 113.471 26.28 113.375 26.496C113.303 26.712 113.183 26.892 113.015 27.036L108.335 30.924C108.239 31.02 108.083 31.104 107.867 31.176C107.675 31.248 107.459 31.284 107.219 31.284H101.819C101.243 31.284 100.823 31.152 100.559 30.888C100.295 30.624 100.163 30.204 100.163 29.628V25.344L99.3705 24.372V25.704C99.3705 26.016 99.3225 26.28 99.2265 26.496C99.1545 26.712 99.0345 26.892 98.8665 27.036ZM123.618 18.864H118.434C117.666 18.864 117.162 18.756 116.922 18.54C116.706 18.324 116.586 17.82 116.562 17.028L116.274 6.516C116.25 6.06 116.262 5.724 116.31 5.508C116.382 5.268 116.502 5.076 116.67 4.932L121.35 1.008C121.47 0.911999 121.638 0.839999 121.854 0.791998C122.094 0.743999 122.382 0.719999 122.718 0.719999H128.658C129.426 0.719999 129.918 0.827999 130.134 1.044C130.35 1.26 130.446 1.764 130.422 2.556L130.134 13.14C130.11 13.548 130.062 13.872 129.99 14.112C129.918 14.328 129.81 14.508 129.666 14.652L125.022 18.54C124.878 18.636 124.698 18.72 124.482 18.792C124.266 18.84 123.978 18.864 123.618 18.864ZM128.262 14.58C128.886 14.58 129.282 14.496 129.45 14.328C129.642 14.136 129.75 13.728 129.774 13.104L130.062 2.556C130.086 1.932 130.002 1.536 129.81 1.368C129.642 1.176 129.258 1.08 128.658 1.08H122.718C122.094 1.08 121.686 1.176 121.494 1.368C121.326 1.536 121.254 1.932 121.278 2.556L121.566 13.104C121.59 13.728 121.686 14.136 121.854 14.328C122.046 14.496 122.454 14.58 123.078 14.58H128.262ZM125.49 4.32H125.85V11.34H125.49V4.32ZM146.624 31.284H140.792C140.192 31.284 139.76 31.152 139.496 30.888C139.256 30.624 139.136 30.204 139.136 29.628V25.128L133.7 17.856C133.124 17.088 132.74 16.416 132.548 15.84C132.356 15.264 132.26 14.388 132.26 13.212V6.3C132.26 5.988 132.296 5.724 132.368 5.508C132.464 5.292 132.596 5.112 132.764 4.968L137.408 1.044C137.528 0.947999 137.684 0.875999 137.876 0.827998C138.092 0.755999 138.32 0.719999 138.56 0.719999H144.104C144.68 0.719999 145.1 0.851999 145.364 1.116C145.628 1.38 145.76 1.8 145.76 2.376V8.28C145.76 8.496 145.772 8.712 145.796 8.928C145.82 9.144 145.892 9.372 146.012 9.612L146.444 10.224V6.3C146.444 5.988 146.48 5.724 146.552 5.508C146.648 5.292 146.78 5.112 146.948 4.968L151.592 1.044C151.712 0.947999 151.868 0.875999 152.06 0.827998C152.276 0.755999 152.504 0.719999 152.744 0.719999H158.108C158.684 0.719999 159.104 0.851999 159.368 1.116C159.632 1.38 159.764 1.8 159.764 2.376V9.288C159.764 10.464 159.668 11.34 159.476 11.916C159.284 12.492 158.9 13.164 158.324 13.932L152.924 21.24V25.704C152.924 26.016 152.876 26.28 152.78 26.496C152.708 26.712 152.588 26.892 152.42 27.036L147.74 30.924C147.644 31.02 147.488 31.104 147.272 31.176C147.08 31.248 146.864 31.284 146.624 31.284ZM151.268 27C151.724 27 152.048 26.904 152.24 26.712C152.456 26.496 152.564 26.16 152.564 25.704V21.132L158.036 13.716C158.564 12.972 158.924 12.324 159.116 11.772C159.308 11.22 159.404 10.392 159.404 9.288V2.376C159.404 1.92 159.296 1.596 159.08 1.404C158.888 1.188 158.564 1.08 158.108 1.08H152.744C152.288 1.08 151.952 1.188 151.736 1.404C151.544 1.596 151.448 1.92 151.448 2.376V8.28C151.448 8.52 151.436 8.772 151.412 9.036C151.388 9.3 151.292 9.552 151.124 9.792L149.468 12.384C149.348 12.6 149.216 12.756 149.072 12.852C148.952 12.948 148.796 12.996 148.604 12.996H148.244C148.052 12.996 147.884 12.948 147.74 12.852C147.62 12.756 147.5 12.6 147.38 12.384L145.724 9.792C145.556 9.552 145.46 9.3 145.436 9.036C145.412 8.772 145.4 8.52 145.4 8.28V2.376C145.4 1.92 145.292 1.596 145.076 1.404C144.884 1.188 144.56 1.08 144.104 1.08H138.56C138.104 1.08 137.768 1.188 137.552 1.404C137.36 1.596 137.264 1.92 137.264 2.376V9.288C137.264 10.392 137.348 11.22 137.516 11.772C137.708 12.324 138.08 12.972 138.632 13.716L144.14 21.096V25.704C144.14 26.16 144.236 26.496 144.428 26.712C144.644 26.904 144.98 27 145.436 27H151.268ZM148.784 17.604H148.532V23.76H148.172V17.604H147.812C147.284 17.604 146.804 17.484 146.372 17.244C145.964 17.004 145.568 16.62 145.184 16.092L141.692 11.232C141.428 10.872 141.272 10.452 141.224 9.972C141.176 9.492 141.152 8.988 141.152 8.46V4.32H141.512V8.46C141.512 8.964 141.536 9.444 141.584 9.9C141.632 10.332 141.776 10.728 142.016 11.088L145.508 15.948C145.82 16.428 146.18 16.764 146.588 16.956C146.996 17.148 147.404 17.244 147.812 17.244H148.784C149.24 17.244 149.648 17.148 150.008 16.956C150.392 16.74 150.764 16.404 151.124 15.948L154.724 11.088C154.964 10.776 155.108 10.392 155.156 9.936C155.204 9.456 155.228 8.964 155.228 8.46V4.32H155.588V8.46C155.588 8.988 155.564 9.492 155.516 9.972C155.492 10.428 155.336 10.848 155.048 11.232L151.448 16.092C151.064 16.62 150.656 17.004 150.224 17.244C149.816 17.484 149.336 17.604 148.784 17.604ZM169.819 16.092V17.208H183.859V16.092C183.859 15.444 183.799 14.844 183.679 14.292C183.583 13.74 183.451 13.224 183.283 12.744L180.799 6.876C180.535 6.252 180.259 5.736 179.971 5.328C179.683 4.896 179.203 4.68 178.531 4.68H175.003C174.283 4.68 173.779 4.896 173.491 5.328C173.203 5.736 172.939 6.24 172.699 6.84L170.395 12.744C170.227 13.224 170.083 13.74 169.963 14.292C169.867 14.844 169.819 15.444 169.819 16.092ZM175.579 8.64C175.675 8.424 175.771 8.268 175.867 8.172C175.987 8.076 176.119 8.028 176.263 8.028H177.163C177.307 8.028 177.427 8.076 177.523 8.172C177.643 8.268 177.751 8.424 177.847 8.64L179.539 14.112H173.887L175.579 8.64ZM183.859 23.76V17.568H169.819V23.76H169.459V16.092C169.459 15.42 169.507 14.808 169.603 14.256C169.723 13.68 169.879 13.128 170.071 12.6L172.375 6.696C172.639 6.024 172.939 5.46 173.275 5.004C173.611 4.548 174.187 4.32 175.003 4.32H178.531C179.323 4.32 179.875 4.548 180.187 5.004C180.523 5.46 180.835 6.036 181.123 6.732L183.607 12.6C183.799 13.128 183.943 13.68 184.039 14.256C184.159 14.808 184.219 15.42 184.219 16.092V23.76H183.859ZM173.527 25.704V20.664H179.899V25.704C179.899 26.16 180.007 26.496 180.223 26.712C180.463 26.904 180.823 27 181.303 27H186.739C187.195 27 187.519 26.904 187.711 26.712C187.927 26.496 188.035 26.16 188.035 25.704V16.2C188.035 15.48 187.915 14.652 187.675 13.716C187.459 12.78 187.111 11.688 186.631 10.44L183.499 2.268C183.355 1.86 183.127 1.56 182.815 1.368C182.527 1.176 182.155 1.08 181.699 1.08H172.015C171.535 1.08 171.139 1.176 170.827 1.368C170.539 1.56 170.323 1.86 170.179 2.268L167.047 10.44C166.567 11.688 166.207 12.78 165.967 13.716C165.751 14.652 165.643 15.48 165.643 16.2V25.704C165.643 26.16 165.739 26.496 165.931 26.712C166.147 26.904 166.483 27 166.939 27H172.231C172.687 27 173.011 26.904 173.203 26.712C173.419 26.496 173.527 26.16 173.527 25.704ZM168.703 30.924C168.607 31.02 168.451 31.104 168.235 31.176C168.043 31.248 167.827 31.284 167.587 31.284H162.295C161.719 31.284 161.299 31.152 161.035 30.888C160.771 30.624 160.639 30.204 160.639 29.628V20.124C160.639 19.38 160.747 18.54 160.963 17.604C161.203 16.644 161.575 15.516 162.079 14.22L165.175 6.084C165.247 5.868 165.331 5.688 165.427 5.544C165.547 5.376 165.667 5.232 165.787 5.112L165.823 5.076L170.431 1.224C170.623 1.056 170.851 0.935999 171.115 0.864C171.379 0.767999 171.679 0.719999 172.015 0.719999H181.699C182.251 0.719999 182.695 0.839999 183.031 1.08C183.391 1.296 183.655 1.644 183.823 2.124L186.955 10.296C187.459 11.592 187.819 12.72 188.035 13.68C188.275 14.616 188.395 15.456 188.395 16.2V25.704C188.395 26.016 188.347 26.28 188.251 26.496C188.179 26.712 188.059 26.892 187.891 27.036L183.211 30.924C183.115 31.02 182.959 31.104 182.743 31.176C182.551 31.248 182.335 31.284 182.095 31.284H176.659C176.059 31.284 175.615 31.14 175.327 30.852C175.039 30.588 174.895 30.18 174.895 29.628V24.948H173.887V25.704C173.887 26.016 173.839 26.28 173.743 26.496C173.671 26.712 173.551 26.892 173.383 27.036L168.703 30.924ZM200.817 4.608L214.065 19.512V4.32H214.425V23.76H214.065V20.052L200.457 4.788C200.433 4.764 200.397 4.74 200.349 4.716C200.325 4.692 200.301 4.68 200.277 4.68C200.253 4.68 200.229 4.692 200.205 4.716C200.205 4.74 200.205 4.764 200.205 4.788V23.76H199.845V4.716C199.845 4.572 199.893 4.464 199.989 4.392C200.085 4.32 200.181 4.284 200.277 4.284C200.373 4.284 200.457 4.308 200.529 4.356C200.601 4.404 200.697 4.488 200.817 4.608ZM202.761 27C203.217 27 203.541 26.904 203.733 26.712C203.949 26.496 204.057 26.16 204.057 25.704V13.824L210.213 21.276V25.704C210.213 26.16 210.309 26.496 210.501 26.712C210.717 26.904 211.053 27 211.509 27H216.909C217.365 27 217.689 26.904 217.881 26.712C218.097 26.496 218.205 26.16 218.205 25.704V2.376C218.205 1.92 218.097 1.596 217.881 1.404C217.689 1.188 217.365 1.08 216.909 1.08H211.509C211.053 1.08 210.717 1.188 210.501 1.404C210.309 1.596 210.213 1.92 210.213 2.376V10.044L203.229 2.052C202.917 1.692 202.593 1.44 202.257 1.296C201.945 1.152 201.561 1.08 201.105 1.08H197.361C196.905 1.08 196.569 1.188 196.353 1.404C196.161 1.596 196.065 1.92 196.065 2.376V25.704C196.065 26.16 196.161 26.496 196.353 26.712C196.569 26.904 196.905 27 197.361 27H202.761ZM203.913 27.036L199.233 30.924C199.137 31.02 198.981 31.104 198.765 31.176C198.573 31.248 198.357 31.284 198.117 31.284H192.717C192.141 31.284 191.721 31.152 191.457 30.888C191.193 30.624 191.061 30.204 191.061 29.628V6.3C191.061 5.988 191.097 5.724 191.169 5.508C191.265 5.292 191.397 5.112 191.565 4.968L196.209 1.044C196.329 0.947999 196.485 0.875999 196.677 0.827998C196.893 0.755999 197.121 0.719999 197.361 0.719999H201.105C201.633 0.719999 202.077 0.803999 202.437 0.971998C202.797 1.14 203.157 1.416 203.517 1.8L206.001 4.68L210.357 1.044C210.477 0.947999 210.633 0.875999 210.825 0.827998C211.041 0.755999 211.269 0.719999 211.509 0.719999H216.909C217.485 0.719999 217.905 0.851999 218.169 1.116C218.433 1.38 218.565 1.8 218.565 2.376V25.704C218.565 26.016 218.517 26.28 218.421 26.496C218.349 26.712 218.229 26.892 218.061 27.036L213.381 30.924C213.285 31.02 213.129 31.104 212.913 31.176C212.721 31.248 212.505 31.284 212.265 31.284H206.865C206.289 31.284 205.869 31.152 205.605 30.888C205.341 30.624 205.209 30.204 205.209 29.628V25.344L204.417 24.372V25.704C204.417 26.016 204.369 26.28 204.273 26.496C204.201 26.712 204.081 26.892 203.913 27.036Z" fill="#2E2E2E" fill-opacity="0.91"/>
</svg>
